Hanif_Medium_2_5_grf.mot
version=1
nRows=21
nColumns=19
inDegrees=yes
endheader
time	right_ground_force_vx	right_ground_force_vy	right_ground_force_vz	right_ground_force_px	right_ground_force_py	right_ground_force_pz	right_ground_torque_x	right_ground_torque_y	right_ground_torque_z	left_ground_force_vx	left_ground_force_vy	left_ground_force_vz	left_ground_force_px	left_ground_force_py	left_ground_force_pz	left_ground_torque_x	left_ground_torque_y	left_ground_torque_z
4.400000	-0.798486	265.115000	52.357500	0.239284	0.000000	-1.434650	-18.916400	-1.659470	10.504500	-0.669648	271.384000	-56.576200	0.230081	0.000000	-0.969774	18.126900	-0.463117	8.624110
4.405000	-0.900306	263.746000	53.128800	0.238949	0.000000	-1.434000	-18.990800	-1.561120	10.388200	-0.575205	271.402000	-56.475300	0.231420	0.000000	-0.971019	18.465600	-0.570801	9.023480
4.410000	-0.292887	264.094000	53.092800	0.239385	0.000000	-1.434830	-18.797300	-1.599900	10.504300	-0.945429	271.683000	-56.553600	0.231107	0.000000	-0.970473	18.339100	-0.441929	8.922760
4.415000	-0.315292	265.467000	52.618300	0.239308	0.000000	-1.434450	-18.994800	-1.582620	10.535600	-1.006230	272.795000	-56.147400	0.231473	0.000000	-0.970511	18.424800	-0.408521	9.047330
4.420000	-0.434172	267.145000	52.781100	0.239421	0.000000	-1.434650	-19.061700	-1.648860	10.622700	-1.847760	270.982000	-55.498100	0.232534	0.000000	-0.971820	18.664300	-0.333443	9.280260
4.425000	-1.440760	266.541000	52.898800	0.239332	0.000000	-1.434670	-19.016000	-1.579890	10.603300	-2.328800	273.109000	-55.389700	0.232754	0.000000	-0.970783	18.530800	-0.226270	9.391290
4.430000	-1.379580	265.882000	52.688100	0.240092	0.000000	-1.434140	-19.109500	-1.613290	10.778200	-3.033590	271.832000	-55.108200	0.233605	0.000000	-0.971879	18.748500	-0.184751	9.590300
4.435000	-2.206820	264.985000	52.663700	0.240384	0.000000	-1.434440	-18.967800	-1.714240	10.814600	-3.034950	272.840000	-55.223400	0.233578	0.000000	-0.972057	18.866000	-0.152038	9.609900
4.440000	-2.169510	265.521000	51.843500	0.240760	0.000000	-1.434080	-19.100600	-1.675050	10.938500	-3.638740	272.029000	-55.039300	0.234246	0.000000	-0.971657	18.706900	-0.130182	9.774280
4.445000	-2.362750	266.093000	52.189200	0.240579	0.000000	-1.434330	-19.075300	-1.711560	10.910500	-3.898930	272.835000	-55.346900	0.234007	0.000000	-0.971394	18.693000	-0.152394	9.745000
4.450000	-2.158330	265.726000	52.053800	0.240082	0.000000	-1.435460	-18.749300	-1.651400	10.765800	-3.933490	272.384000	-55.255300	0.234359	0.000000	-0.972190	18.879900	-0.163577	9.832360
4.455000	-1.419780	264.500000	52.303700	0.240923	0.000000	-1.434830	-18.827100	-1.666280	10.937800	-3.287110	274.406000	-55.342700	0.234585	0.000000	-0.971201	18.741500	-0.086098	9.938800
4.460000	-0.943643	264.012000	52.358300	0.240283	0.000000	-1.434830	-18.791200	-1.630780	10.743500	-3.516630	271.920000	-55.698200	0.234375	0.000000	-0.972061	18.808800	-0.150480	9.820040
4.465000	-0.207697	263.425000	52.652800	0.241176	0.000000	-1.434070	-18.947700	-1.578480	10.967600	-3.560050	273.207000	-55.734300	0.235157	0.000000	-0.971503	18.746400	-0.160270	10.087300
4.470000	0.057493	264.709000	52.783400	0.240643	0.000000	-1.434360	-18.964600	-1.550740	10.876400	-4.232270	274.332000	-55.329100	0.234900	0.000000	-0.971503	18.828800	-0.135135	10.049400
4.475000	0.912032	263.838000	52.510600	0.240115	0.000000	-1.433860	-19.030200	-1.473290	10.696800	-3.892220	274.067000	-54.922200	0.235489	0.000000	-0.971935	18.925700	-0.100402	10.190900
4.480000	1.275890	265.043000	52.890500	0.239805	0.000000	-1.434230	-19.020100	-1.459700	10.660600	-3.768720	272.304000	-55.066100	0.235633	0.000000	-0.972634	18.993800	-0.102068	10.173500
4.485000	1.412930	265.698000	53.160800	0.240040	0.000000	-1.433680	-19.211500	-1.419950	10.759800	-3.583900	271.284000	-55.086900	0.235718	0.000000	-0.972576	18.905900	-0.144016	10.169100
4.490000	1.615730	267.446000	52.632500	0.239452	0.000000	-1.434340	-19.161100	-1.429480	10.655900	-3.154320	271.674000	-54.882200	0.235615	0.000000	-0.972234	18.835800	-0.119663	10.138800
4.495000	1.228900	266.132000	52.997300	0.240841	0.000000	-1.432720	-19.499200	-1.431570	10.997000	-3.046550	271.860000	-55.109100	0.235560	0.000000	-0.973124	19.089800	-0.131770	10.134600
4.500000	0.955019	267.658000	52.441500	0.240454	0.000000	-1.433620	-19.370200	-1.449610	10.946000	-3.093960	272.772000	-54.835400	0.235418	0.000000	-0.972284	18.925500	-0.197127	10.134200
